# xmcd
#
# Track frame offsets: 
#        150
#        14341
#        34218
#        47574
#        64029
#        85541
#        97710
#        110397
#        127093
#        147001
#        162751
#        173135
#        190674
#        202372
#        215991
#
# Disc length: 2978 seconds
#
# Revision: 3
# Processed by: cddbd v1.5.2PL0 Copyright (c) Steve Scherf et al.
# Submitted via: ExactAudioCopyFreeDBPlugin 1.0
#
DISCID=cd0ba00f
DTITLE=Rene Lacaille and Bob Brozman - Digdig
DYEAR=2002
DGENRE=World
TTITLE0=Zok
TTITLE1=5 O.P. (syncopé)
TTITLE2=An dio
TTITLE3=Lang là
TTITLE4=Oh! Lé là Ô
TTITLE5=Fraka
TTITLE6=Zi bi pi blues
TTITLE7=Pondaurat
TTITLE8=Place d'Youville
TTITLE9=Lozé
TTITLE10=Ty Guitar là
TTITLE11=Debussy à la réunion
TTITLE12=Mam'zelle Rico
TTITLE13=K ba
TTITLE14=Maria ya ya
EXTD=
EXTT0=
EXTT1=
EXTT2=
EXTT3=
EXTT4=
EXTT5=
EXTT6=
EXTT7=
EXTT8=
EXTT9=
EXTT10=
EXTT11=
EXTT12=
EXTT13=
EXTT14=
PLAYORDER=
